<svg viewBox="0 0 660 660" xmlns="http://www.w3.org/2000/svg">
  <path fill="currentColor"
    d="M381.218 109.806L550.53 7.63108C559.093 2.54999 568.806 -0.0812272 578.692 0.00187631C588.578 0.0850008 598.29 2.88034 606.852 8.10644C615.412 13.3313 622.521 20.8038 627.463 29.7714C632.405 38.739 635.009 48.8878 635.009 59.1962L634.882 601.706C634.886 612.014 632.287 622.121 627.346 631.011C622.404 639.9 615.295 647.257 606.734 652.341C598.172 657.426 588.459 660.06 578.572 659.979C568.685 659.899 558.972 657.104 550.412 651.876L381.218 548.602C258.577 470.749 280.916 499.527 280.916 366.545L280.916 284.318C280.916 154.399 267.671 178.619 381.218 109.806ZM428.234 470.749L546.326 542.794L546.396 116.555C546.396 116.555 469.894 159.374 419.721 188.882C369.549 218.391 369.549 217.632 369.549 284.318C369.549 351.004 369.504 364.182 369.504 364.182C369.549 432.385 369.549 432.385 428.234 470.749Z" />
  <path fill="currentColor" d="M61.7143 293H239.511V367H61.7143V293Z" />
  <path fill="currentColor"
    d="M98.4286 330C98.4286 350.435 81.991 367 61.7143 367C41.4375 367 25 350.435 25 330C25 309.565 41.4375 293 61.7143 293C81.991 293 98.4286 309.565 98.4286 330Z" />
  <path fill="currentColor" d="M134.8 183H239.511V257H134.8V183Z" />
  <path fill="currentColor"
    d="M171.6 220C171.6 240.435 155.124 257 134.8 257C114.476 257 98 240.435 98 220C98 199.565 114.476 183 134.8 183C155.124 183 171.6 199.565 171.6 220Z" />
  <path fill="currentColor" d="M134.8 403H239.511V477H134.8V403Z" />
  <path fill="currentColor"
    d="M171.6 440C171.6 460.435 155.124 477 134.8 477C114.476 477 98 460.435 98 440C98 419.565 114.476 403 134.8 403C155.124 403 171.6 419.565 171.6 440Z" />
</svg>
